<?xml version="1.0" encoding="UTF-8"?>
<svg version="1.1" xmlns="http://www.w3.org/2000/svg" width="575" height="290">
<path d="M0 0 C189.75 0 379.5 0 575 0 C575 95.7 575 191.4 575 290 C385.25 290 195.5 290 0 290 C0 194.3 0 98.6 0 0 Z " fill="#F5C600" transform="translate(0,0)"/>
<path d="M0 0 C19.8 0 39.6 0 60 0 C60.9075 6.909375 61.815 13.81875 62.75 20.9375 C64.59117144 34.85563504 66.45620011 48.75622391 68.79394531 62.60131836 C69.71492821 68.05890107 70.43704331 73.49305732 71 79 C71.13051758 77.98091553 71.26103516 76.96183105 71.39550781 75.91186523 C71.89980742 71.97461234 72.40428034 68.03738167 72.90881348 64.10015869 C73.13597864 62.32733577 73.36311088 60.55450863 73.59020996 58.78167725 C74.78415848 49.46185553 75.97965875 40.14225142 77.1875 30.82421875 C77.2787616 30.11960007 77.37002319 29.41498138 77.46405029 28.68901062 C77.8894236 25.40509106 78.31559098 22.12128074 78.74316406 18.83764648 C78.89495117 17.66661377 79.04673828 16.49558105 79.203125 15.2890625 C79.33364258 14.28568848 79.46416016 13.28231445 79.59863281 12.24853516 C80.10254096 8.17006686 80.54618384 4.08434547 81 0 C100.8 0 120.6 0 141 0 C141 57.75 141 115.5 141 175 C128.13 175 115.26 175 102 175 C101.67 137.38 101.34 99.76 101 61 C100.34 67.27 99.68 73.54 99 80 C98.33464958 84.85886851 97.66327184 89.71065678 96.94113159 94.56048584 C95.1199449 106.81389544 93.44072843 119.07866724 91.9375 131.375 C90.11439851 146.27481268 88.0812898 161.13364429 86 176 C76.43 176 66.86 176 57 176 C56.0619428 170.16319965 55.1241723 164.32652166 54.1953125 158.48828125 C53.42841596 153.67164385 52.65154178 148.85679076 51.8671875 144.04296875 C47.7554094 118.40562384 44.46855504 92.76640885 41 67 C40.67 102.97 40.34 138.94 40 176 C26.8 176 13.6 176 0 176 C0 117.92 0 59.84 0 0 Z " fill="#000000" transform="translate(130,57)"/>
<path d="M0 0 C81.48837209 0 81.48837209 0 93.765625 11.6796875 C103.64759094 22.01838296 104.14504419 34.01085715 104.16113281 47.60595703 C104.16858017 49.13723488 104.16858017 49.13723488 104.17617798 50.69944763 C104.19069463 54.05224297 104.19758438 57.40499099 104.203125 60.7578125 C104.20736607 62.48807489 104.20736607 62.48807489 104.21169281 64.25329208 C104.22664368 70.35896785 104.23589877 76.46462025 104.24023438 82.5703125 C104.24570971 88.84068244 104.26973002 95.11083423 104.29820633 101.38113594 C104.31693467 106.23536787 104.32204374 111.08954833 104.32357025 115.94381332 C104.32657484 118.25361192 104.33452804 120.56341009 104.34775543 122.87317276 C104.52487737 156.18178434 104.52487737 156.18178434 95.5 166.7578125 C73.93224805 186.41591975 14.87272535 176 0 176 C0 117.92 0 59.84 0 0 Z " fill="#020200" transform="translate(287,57)"/>
<path d="M0 0 C14.52 0 29.04 0 44 0 C44.33 18.48 44.66 36.96 45 56 C47.64 53.69 50.28 51.38 53 49 C56.11907142 47.7687876 58.80503048 46.78072564 62 46 C62.62132812 45.81695312 63.24265625 45.63390625 63.8828125 45.4453125 C73.72255157 43.37569949 83.58740034 45.03838887 92.3125 49.8125 C97.80450269 54.28273474 102.27238032 59.7767028 103.27340126 66.96264076 C103.38042869 69.12693379 103.39428268 71.27189816 103.37231445 73.4387207 C103.37596512 74.25273346 103.37961578 75.06674622 103.38337708 75.90542603 C103.39143964 78.57909438 103.37790481 81.25214823 103.36328125 83.92578125 C103.36276198 85.7975413 103.36328228 87.66930189 103.36479187 89.5410614 C103.36470233 93.45901665 103.35431256 97.37676537 103.33618164 101.29467773 C103.3135425 106.29437366 103.31294391 111.29376691 103.31969929 116.29349995 C103.32305642 120.15846909 103.31637568 124.02337041 103.30657005 127.88832664 C103.30274425 129.73054842 103.30155886 131.57277777 103.3031559 133.41500282 C103.30711466 160.73420391 103.30711466 160.73420391 95.53515625 169.6875 C87.79013084 176.97693568 79.0768151 178.66442234 68.76123047 178.61328125 C58.23517819 178.17313689 50.46547119 173.12613159 43 166 C42.855625 167.27875 42.71125 168.5575 42.5625 169.875 C42.29357254 172.25692894 42.07773654 173.84452691 41 176 C27.47 176 13.94 176 0 176 C0 117.92 0 59.84 0 0 Z " fill="#010100" transform="translate(407,55)"/>
<path d="M0 0 C15.18 0 30.36 0 46 0 C46 58.08 46 116.16 46 176 C30.82 176 15.64 176 0 176 C0 117.92 0 59.84 0 0 Z " fill="#020100" transform="translate(69,58)"/>
<path d="M0 0 C7.96153846 0 7.96153846 0 12 3 C14.70876214 5.70876214 14.24617877 7.83794631 14.27105713 11.51721191 C14.26700867 12.4340979 14.26296021 13.35098389 14.25878906 14.2956543 C14.2622937 15.26005936 14.26579834 16.22446442 14.26940918 17.21809387 C14.27824225 20.42020783 14.27236947 23.62210237 14.265625 26.82421875 C14.26697175 29.04661603 14.26891236 31.26901303 14.27142334 33.4914093 C14.27437719 38.15795689 14.27007061 42.82442807 14.26074219 47.4909668 C14.24938061 53.46522749 14.25588458 59.43930784 14.26788712 65.41356182 C14.27512692 70.00756682 14.27280746 74.60152936 14.26763153 79.19553566 C14.26629918 81.39749994 14.2679282 83.5994681 14.27259064 85.80142784 C14.27768694 88.88684607 14.26990042 91.97197619 14.25878906 95.05737305 C14.26283752 95.96413788 14.26688599 96.87090271 14.27105713 97.80514526 C14.23709534 102.91266473 13.79458361 107.1959283 12 112 C7.85149803 115.67438746 6.00097768 115 0 115 C0 77.05 0 39.1 0 0 Z " fill="#F3C500" transform="translate(333,87)"/>
<path d="M0 0 C3.16178216 2.50556593 4.79857373 4.00335295 5.60800171 8.00836182 C5.59991486 9.12483093 5.591828 10.24130005 5.58349609 11.39160156 C5.58634613 12.66352356 5.58919617 13.93544556 5.59213257 15.24591064 C5.56989836 16.62749294 5.54698292 18.00906442 5.5234375 19.390625 C5.51663933 20.81922594 5.51192241 22.24783815 5.50918579 23.67645264 C5.49579193 27.43481446 5.45155191 31.19222775 5.40161133 34.95025635 C5.36633887 37.99849282 5.35314967 41.04663147 5.34119225 44.09503555 C5.32630327 47.75612353 5.3011765 51.41711431 5.2734375 55.078125 C5.26607134 56.11039593 5.26607134 56.11039593 5.25855637 57.16352081 C5.1324885 72.24433571 5.1324885 72.24433571 4 79 C1.30107037 81.54470508 -0.48924055 81.91827849 -4.125 82.5 C-7 82 -7 82 -8.65542603 79.92581177 C-10.31683797 76.31055615 -10.38085177 73.6633681 -10.38818359 69.68701172 C-10.39344055 68.96933624 -10.39869751 68.25166077 -10.40411377 67.51223755 C-10.41726765 65.15116313 -10.40859438 62.7907682 -10.3984375 60.4296875 C-10.40045913 58.78492097 -10.40337131 57.14015531 -10.40713501 55.49539185 C-10.41155171 52.0539697 -10.40514682 48.61278161 -10.39111328 45.17138672 C-10.37399467 40.75824875 -10.38388337 36.34565707 -10.40183067 31.93253899 C-10.4126633 28.53878653 -10.40922507 25.14516396 -10.4014473 21.75140762 C-10.39944523 20.12389181 -10.4019048 18.49636423 -10.40888596 16.86886215 C-10.41649503 14.59698904 -10.40490619 12.32600593 -10.38818359 10.05419922 C-10.38579681 8.76134003 -10.38341003 7.46848083 -10.38095093 6.13644409 C-10 3 -10 3 -8.68667603 1.09036255 C-5.73155975 -0.81999134 -3.40044569 -0.46902699 0 0 Z " fill="#F4C500" transform="translate(461,126)"/>
<path d="M0 0 C2 3 2 3 3.26171875 5.3046875 C7.21338886 12.4285202 10.80374821 16.39779477 18.4375 19.3125 C19.283125 19.539375 20.12875 19.76625 21 20 C21 20.33 21 20.66 21 21 C14.07 21 7.14 21 0 21 C0 14.07 0 7.14 0 0 Z " fill="#000000" transform="translate(0,269)"/>
<path d="M0 0 C0.33 0 0.66 0 1 0 C1 6.6 1 13.2 1 20 C-5.93 20 -12.86 20 -20 20 C-18.68 19.34 -17.36 18.68 -16 18 C-8.29372566 13.72652059 -2.83930358 8.51791073 0 0 Z " fill="#000000" transform="translate(574,270)"/>
<path d="M0 0 C6.27 0 12.54 0 19 0 C17.39391542 1.07072305 15.78615766 2.13906591 14.16796875 3.19140625 C8.64973243 7.0117237 5.42056879 11.28089614 2 17 C1.34 17.99 0.68 18.98 0 20 C0 13.4 0 6.8 0 0 Z " fill="#000000" transform="translate(0,0)"/>
<path d="M0 0 C6.27 0 12.54 0 19 0 C19 6.6 19 13.2 19 20 C17.94415449 18.41623174 16.89874812 16.82214558 15.95703125 15.16796875 C12.15588475 8.59055825 7.4834879 3.26772361 0 1 C0 0.67 0 0.34 0 0 Z " fill="#000000" transform="translate(556,0)"/>
</svg>
